<svg id="Layer_1" data-name="Layer 1" xmlns="http://www.w3.org/2000/svg" xmlns:xlink="http://www.w3.org/1999/xlink" viewBox="0 0 1920 1080"><defs><style>.cls-1{opacity:0.41;}.cls-2{fill:url(#linear-gradient);}.cls-3{fill:#fff;}.cls-4{fill:#ffbe0a;}</style><linearGradient id="linear-gradient" x1="1246.57" y1="404.63" x2="214.57" y2="644.63" gradientUnits="userSpaceOnUse"><stop offset="0" stop-color="#fff"/><stop offset="0.02" stop-color="#f8fafc"/><stop offset="0.18" stop-color="#b7cae1"/><stop offset="0.34" stop-color="#7fa1c9"/><stop offset="0.49" stop-color="#527fb6"/><stop offset="0.64" stop-color="#2e65a7"/><stop offset="0.78" stop-color="#15529d"/><stop offset="0.9" stop-color="#054796"/><stop offset="1" stop-color="#004394"/></linearGradient></defs><title>Artboard 1</title><g class="cls-1"><circle class="cls-2" cx="664.5" cy="540" r="333.32"/></g><path class="cls-3" d="M704.93,658.7a3.29,3.29,0,0,1,3.5,4.4L694.05,702a2.54,2.54,0,0,1-3.21,1.47L611.43,676a2.43,2.43,0,0,1-1.53-3.11l14.45-39.09a3.29,3.29,0,0,1,5.44-1.16l18.13,18.61a3.31,3.31,0,0,1,.73,3.44l-5.82,15.77a3.27,3.27,0,0,0,2,4.24l21.21,7.34a3.29,3.29,0,0,0,4.16-2l5.9-16a3.29,3.29,0,0,1,2.67-2.13Z"/><path class="cls-3" d="M632.77,619l18,6.48,2.38.86,37.59,13.54,2.38.85,17.14,6.18-1.64,4.63-35.06,4.41a7.6,7.6,0,0,0-4.74-9.08l-3.91-1.41a7.77,7.77,0,0,0-2.57-.45,7.61,7.61,0,0,0-6.88,4.4L631.13,623.6l1.64-4.62m-.39-4.18a3.34,3.34,0,0,0-3.16,2.21l-1.94,5.5a3.58,3.58,0,0,0,.76,3.64l25,26.48a3.57,3.57,0,0,0,6-1.26h0a3.59,3.59,0,0,1,3.37-2.38,3.44,3.44,0,0,1,1.21.22l3.91,1.41a3.56,3.56,0,0,1,2.15,4.55l0,.07A3.56,3.56,0,0,0,673.4,660l36-4.53a3.57,3.57,0,0,0,2.92-2.35l1.94-5.47a3.37,3.37,0,0,0-2-4.3L694.48,637l-2.38-.86-37.58-13.54-2.4-.85L633.51,615a3.48,3.48,0,0,0-1.13-.19Z"/><path class="cls-3" d="M694.46,637l-2.39-.85a8.51,8.51,0,0,0-5.58-7.38l-23-8.3a8.44,8.44,0,0,0-9,2.14l-2.38-.86a9.21,9.21,0,0,1,11.3-4.48l25.14,9.05A9.31,9.31,0,0,1,694.46,637Z"/><path class="cls-3" d="M662.22,662.43l-1.93-.69a3.28,3.28,0,0,1-2-4.19l1.48-4.17a3.28,3.28,0,0,1,4.2-2l1.93.69a3.29,3.29,0,0,1,2,4.19l-1.48,4.18A3.27,3.27,0,0,1,662.22,662.43Z"/><path class="cls-3" d="M807.44,727.92h0c-9.62-3.35-18.22-9.69-24.87-20.2-7.78-12.3-12.93-30.3-13.88-55.94-1.9-50.46,13.85-99.87,42.67-141.16,56.5-81,73-174.77,49.57-189.64-40-25.49-122.17,38.29-126.54,167.79-.41,12-.63,24.88-.6,38.13,0,19.75.7,40.42,2.38,60.81a1.7,1.7,0,0,1,0,.39c.21,2.7.46,5.4.74,8.07a.17.17,0,0,1-.08.17c-12.76,7.62-31.27,17.55-49.43,23a.19.19,0,0,1-.23-.24l4.73-15.31a2.21,2.21,0,0,0-3.37-2.47l-29.64,20.42a2,2,0,0,0,.25,3.46c9.61,4.78,41.81,16.24,78.37-20.75a.18.18,0,0,1,.31.1c4.79,42,14.53,81.22,33,106.15,6.52,8.83,14.15,15.9,23,20.65h0c26.45,14.21,64.1,8,117.24-32C905,703.51,847.52,741.84,807.44,727.92Zm-55.3-271.17c16.49-51.35,43.37-111.15,78.2-105,54.15,9.56-65.7,193.41-90,229.77a.18.18,0,0,1-.33-.08c-.52-4-1-8.49-1.42-13.54C735.66,530.37,740.66,492.62,752.14,456.75Z"/><path class="cls-3" d="M543.76,365.78l88.56,13a5.23,5.23,0,0,0,5.92-6l-10.38-66.53a5.21,5.21,0,0,0-4.39-4.35l-41.76-6.25a5.21,5.21,0,0,0-5.23,2.45L540.06,357.9A5.22,5.22,0,0,0,543.76,365.78Z"/><path class="cls-3" d="M644.71,418.33c-.38,2.52-.76,5-1.17,7.52C632.06,496,604.69,555.38,568.41,605.49c11.16,6,22.74,9.84,35.75,13.76l-3.49-13.4a2.3,2.3,0,0,1,3.53-2.47l30.52,21a1.51,1.51,0,0,1-.16,2.57c-7.95,4.16-37.36,16-72-13.61-1.36,1.75-2.69,3.5-4.08,5.25-1.78,2.33-3.61,4.62-5.48,6.92C492.17,700.58,411.4,753.15,337.54,789c-96.78,47-181.72,65.24-194.65,67.85,12.59-3,94.87-23.45,187.4-76.42,70.33-40.21,146.6-99.24,202.65-183.63a242.44,242.44,0,0,1-24.32-191.33v0c.73-2.48,1.48-4.94,2.28-7.36.25-.73.47-1.5.72-2.23a6.91,6.91,0,0,1,.29-.7c1.17-6.66,7.53-11.75,15.15-11.75,8.51,0,15.41,6.27,15.41,14a12.87,12.87,0,0,1-1.49,6c0,.13-.09.22-.13.35-1.55,3.79-3,7.68-4.3,11.57A237.41,237.41,0,0,0,527.92,448v.06c-5,21.95-1.21,53.84,1.13,83.21a176.5,176.5,0,0,0,12,52.41l.13.32c30.4-48.81,54-105.77,66.12-172a17.55,17.55,0,0,1,1.48-4.65,19,19,0,0,1,35.94,10.93Z"/><path class="cls-4" d="M1029,584.72l-.13-54.6-26.78,45h-9.49l-26.65-43.81v53.43H946.17v-91H963.6l34.06,56.55,33.54-56.55h17.29l.26,91Z"/><path class="cls-4" d="M1123.77,552.48v32.24h-21.06v-32.5l-35.24-58.5h22.37l24.31,40.43,24.31-40.43h20.67Z"/><path class="cls-4" d="M1186.5,575.49q-10.86-10.79-10.85-30.81v-51h21.06V543.9q0,24.45,20.28,24.44,9.88,0,15.08-5.91t5.2-18.53V493.72h20.8v51q0,20-10.85,30.81t-30.36,10.79Q1197.36,586.28,1186.5,575.49Z"/><path class="cls-3" d="M1381.62,493.72v91h-5.46l-62-79v79h-6.63v-91h5.59l61.89,79v-79Z"/><path class="cls-3" d="M1485.89,578.74v6h-62.8v-91h60.85v6h-54.22v35.88h48.5v5.85h-48.5v37.31Z"/><path class="cls-3" d="M1579.37,501.84q9.75,8.13,9.75,22.56t-9.75,22.43q-9.75,8.11-26.92,8.12h-26v29.77h-6.63v-91h32.63Q1569.63,493.72,1579.37,501.84Zm-4.68,40.76q7.66-6.37,7.67-18.2t-7.67-18.27q-7.68-6.44-22.24-6.43h-26V549h26Q1567,549,1574.69,542.6Z"/><path class="cls-3" d="M1673,559.11h-52.79l-11.57,25.61h-7.15l41.86-91H1650l41.87,91h-7.15Zm-2.47-5.59L1646.58,501l-23.79,52.52Z"/><path class="cls-3" d="M1718.09,493.72h6.63v85h52.39v6h-59Z"/></svg>